<svg id="ico_dropdown_n" xmlns="http://www.w3.org/2000/svg" width="16" height="16" viewBox="0 0 16 16">
  <g id="그룹_204435" data-name="그룹 204435">
    <rect id="사각형_39" data-name="사각형 39" width="16" height="16" transform="translate(16 16) rotate(180)" fill="none" opacity="0"/>
    <g id="그룹_204434" data-name="그룹 204434" transform="translate(1)">
      <g id="사각형_40" data-name="사각형 40" transform="translate(0 2)" fill="none" stroke="#222" stroke-width="1">
        <rect width="14" height="13" rx="1" stroke="none"/>
        <rect x="0.5" y="0.5" width="13" height="12" rx="0.5" fill="none"/>
      </g>
      <g id="사각형_41" data-name="사각형 41" transform="translate(0 4)" fill="none" stroke="#222" stroke-width="1">
        <rect width="14" height="1" stroke="none"/>
        <rect x="0.5" y="0.5" width="13" fill="none"/>
      </g>
      <g id="합치기_2" data-name="합치기 2" transform="translate(3)" fill="none">
        <path d="M7,2V0H8V2ZM0,2V0H1V2Z" stroke="none"/>
        <path d="M 8.000100135803223 1.999800086021423 L 7.000200271606445 1.999800086021423 L 7.000200271606445 4.301071143686386e-08 L 8.000100135803223 4.301071143686386e-08 L 8.000100135803223 1.999800086021423 Z M 0.9999000430107117 1.999800086021423 L 6.790160966829717e-08 1.999800086021423 L 6.790160966829717e-08 4.301071143686386e-08 L 0.9999000430107117 4.301071143686386e-08 L 0.9999000430107117 1.999800086021423 Z" stroke="none" fill="#222"/>
      </g>
      <g id="합치기_1" data-name="합치기 1" transform="translate(3 7)" fill="none">
        <path d="M6,5V3H8V5ZM3,5V3H5V5ZM0,5V3H2V5ZM6,2V0H8V2ZM3,2V0H5V2ZM0,2V0H2V2Z" stroke="none"/>
        <path d="M 8.000100135803223 5.000400066375732 L 6.00029993057251 5.000400066375732 L 6.00029993057251 2.99970006942749 L 8.000100135803223 2.99970006942749 L 8.000100135803223 5.000400066375732 Z M 5.000400066375732 5.000400066375732 L 2.99970006942749 5.000400066375732 L 2.99970006942749 2.99970006942749 L 5.000400066375732 2.99970006942749 L 5.000400066375732 5.000400066375732 Z M 1.999800086021423 5.000400066375732 L 6.790160966829717e-08 5.000400066375732 L 6.790160966829717e-08 2.99970006942749 L 1.999800086021423 2.99970006942749 L 1.999800086021423 5.000400066375732 Z M 8.000100135803223 1.999800086021423 L 6.00029993057251 1.999800086021423 L 6.00029993057251 3.318786667705353e-08 L 8.000100135803223 3.318786667705353e-08 L 8.000100135803223 1.999800086021423 Z M 5.000400066375732 1.999800086021423 L 2.99970006942749 1.999800086021423 L 2.99970006942749 3.318786667705353e-08 L 5.000400066375732 3.318786667705353e-08 L 5.000400066375732 1.999800086021423 Z M 1.999800086021423 1.999800086021423 L 6.790160966829717e-08 1.999800086021423 L 6.790160966829717e-08 3.318786667705353e-08 L 1.999800086021423 3.318786667705353e-08 L 1.999800086021423 1.999800086021423 Z" stroke="none" fill="#222"/>
      </g>
    </g>
  </g>
</svg>
